Coordinates
nRows=5
nColumns=38

# SIMM Motion File Header:
name Coordinates
datacolumns 38
datarows 5
otherdata 1
range 0.60099999999999998000 0.60499999999999998000

Units are S.I. units (second, meters, Newtons, ...)
Angles are in degrees.

endheader
time	pelvis_tilt	pelvis_list	pelvis_rotation	pelvis_tx	pelvis_ty	pelvis_tz	hip_flexion_r	hip_adduction_r	hip_rotation_r	knee_angle_r	ankle_angle_r	subtalar_angle_r	mtp_angle_r	hip_flexion_l	hip_adduction_l	hip_rotation_l	knee_angle_l	ankle_angle_l	subtalar_angle_l	mtp_angle_l	lumbar_extension	lumbar_bending	lumbar_rotation	arm_flex_r	arm_add_r	arm_rot_r	elbow_flex_r	pro_sup_r	wrist_flex_r	wrist_dev_r	arm_flex_l	arm_add_l	arm_rot_l	elbow_flex_l	pro_sup_l	wrist_flex_l	wrist_dev_l
      0.60099999999999998000	     -0.22333537810398904000	     11.66013988310703900000	      5.44151674115955420000	      0.93149084922628844000	      1.03710986036674370000	     -0.26184282603534481000	     27.27441202306816900000	     -9.81486640770648040000	      1.81061150069944990000	   -121.70160313015170000000	      4.15381473618130670000	     -0.00000000000011679213	      0.00000000000011469178	     21.65823661649638200000	     18.85308611006654200000	     -3.97306293102358770000	    -48.61225379681442100000	     27.75057881518395000000	      0.00000000000001693147	      0.00000000000006667955	    -22.52214833335173700000	    -11.73978237999108700000	    -10.19488426929007700000	    -17.59152235031092500000	    -19.00387279866573600000	     -1.77812109229838390000	     94.34565459269143200000	    118.23634723280752000000	      0.00000000000000947359	      0.00000000000004110748	     -9.25503504349667590000	    -25.84517352481397600000	      4.23646469607430110000	    112.29217549426897000000	     94.07998779229097900000	      0.00000000000001293001	     -0.00000000000002043181
      0.60199999999999998000	     -0.23682537401365958000	     11.62452961907115400000	      5.48592295811651990000	      0.93126295966191464000	      1.03710043590993960000	     -0.26192671686296726000	     27.68008149072809900000	     -9.79268519323887610000	      1.88732418150107110000	   -121.70317876989479000000	      4.20703735869123020000	     -0.00000000000011705110	      0.00000000000011498422	     21.38188574657699400000	     18.84322781968139900000	     -3.87845457052242320000	    -48.56998597103523700000	     27.91148844514138000000	      0.00000000000001694603	      0.00000000000006710215	    -22.51890329735697100000	    -11.64785603441878700000	    -10.40633429783227700000	    -17.72873322011424700000	    -19.02393087706320100000	     -1.77942369720062770000	     94.27413040365908600000	    118.06585991067286000000	      0.00000000000000952260	      0.00000000000004122739	     -9.13255691877375320000	    -25.81090530147614000000	      4.16245883106101560000	    112.35543894236237000000	     94.06836409654064800000	      0.00000000000001298507	     -0.00000000000002048399
      0.60299999999999998000	     -0.25105308165236662000	     11.58711384816592900000	      5.53048156721097510000	      0.93104405777028443000	      1.03710009102601570000	     -0.26201230045319573000	     28.08408971611967400000	     -9.76896531881305920000	      1.96174260807560910000	   -121.69613263385827000000	      4.25888296605714790000	     -0.00000000000011730526	      0.00000000000011527541	     21.10332944994817300000	     18.83074730712972700000	     -3.78310550280494120000	    -48.52355001552591300000	     28.06790037485446400000	      0.00000000000001690528	      0.00000000000006757236	    -22.51238076930393100000	    -11.55358270034299700000	    -10.61782287494521000000	    -17.86980644167638500000	    -19.04783049292560900000	     -1.77679225182846780000	     94.21455273215106300000	    117.88384308671007000000	      0.00000000000000957322	      0.00000000000004134787	     -9.01560572361996470000	    -25.77597200946713600000	      4.08445714924976500000	    112.42513024606086000000	     94.05849530788330500000	      0.00000000000001304085	     -0.00000000000002054572
      0.60399999999999998000	     -0.26598942085697208000	     11.54783910140306500000	      5.57517407655326200000	      0.93083430093095854000	      1.03710893862830430000	     -0.26209930357426497000	     28.48629994679441800000	     -9.74362590865632680000	      2.03378654526765330000	   -121.68047560611322000000	      4.30957834501590220000	     -0.00000000000011755008	      0.00000000000011556641	     20.82253408081488600000	     18.81554206949185500000	     -3.68699536040122840000	    -48.47286433103209200000	     28.21974901344920600000	      0.00000000000001684026	      0.00000000000006802651	    -22.50259151611448500000	    -11.45696846693337500000	    -10.82930182700594700000	    -18.01469231890520100000	    -19.07548720146099400000	     -1.77028064595968850000	     94.16670037922824600000	    117.69115002098816000000	      0.00000000000000962399	      0.00000000000004147801	     -8.90416650191221850000	    -25.74042578226880800000	      4.00255717405556060000	    112.50118736895251000000	     94.05056445018294700000	      0.00000000000001309678	     -0.00000000000002063265
      0.60499999999999998000	     -0.28157571229000644000	     11.50665137191160200000	      5.61998213627735940000	      0.93063385321615921000	      1.03712714818481430000	     -0.26218745932570331000	     28.88653815790470200000	     -9.71658870589976330000	      2.10336714277382830000	   -121.65621292551947000000	      4.35935750861804120000	     -0.00000000000011779330	      0.00000000000011585703	     20.53942659505452900000	     18.79751160073075800000	     -3.59008979599366550000	    -48.41783382276361900000	     28.36697073556479500000	      0.00000000000001677017	      0.00000000000006850429	    -22.48958111138199100000	    -11.35801272945725800000	    -11.04072387376342900000	    -18.16333377580654900000	    -19.10681002261666700000	     -1.75996150540990630000	     94.13033879920958200000	    117.48866343843825000000	      0.00000000000000967387	      0.00000000000004161007	     -8.79821076710830140000	    -25.70431675213289300000	      3.91686664655643480000	    112.58354185309427000000	     94.04474731897703100000	      0.00000000000001315268	     -0.00000000000002071795
